<?xml version="1.0" encoding="UTF-8" standalone="no"?><!-- Generator: Gravit.io --><svg xmlns="http://www.w3.org/2000/svg" xmlns:xlink="http://www.w3.org/1999/xlink" style="isolation:isolate" viewBox="0 0 480 120" width="480pt" height="120pt"><defs><clipPath id="_clipPath_aQ3LF4sQi0aT5sLJaXbwKj5YzA8a2EBD"><rect width="480" height="120"/></clipPath></defs><g clip-path="url(#_clipPath_aQ3LF4sQi0aT5sLJaXbwKj5YzA8a2EBD)"><rect width="480" height="120" style="fill:rgb(0,0,0)" fill-opacity="0"/><clipPath id="_clipPath_kY61GFgYIcx9T8fzhH4rOSNCUJHxaUDh"><rect x="0" y="0" width="480" height="120" transform="matrix(1,0,0,1,0,0)" fill="rgb(255,255,255)"/></clipPath><g clip-path="url(#_clipPath_kY61GFgYIcx9T8fzhH4rOSNCUJHxaUDh)"><g><ellipse vector-effect="non-scaling-stroke" cx="53.00000000000003" cy="61.00000000000001" rx="46" ry="43" fill="rgb(20,83,45)"/><ellipse vector-effect="non-scaling-stroke" cx="77.49999999999983" cy="61" rx="30.5" ry="30" fill="rgb(235,235,235)"/><ellipse vector-effect="non-scaling-stroke" cx="51.999999999999886" cy="61.4765625" rx="18.000000000000085" ry="17.5078125" fill="rgb(147,0,0)"/></g></g><path d=" M 304.52 70.88 L 298.056 70.88 L 298.056 87.168 L 289.448 87.168 L 289.448 40.896 L 304.52 40.896 L 304.52 40.896 Q 309.16 40.896 312.552 41.984 L 312.552 41.984 L 312.552 41.984 Q 315.944 43.072 318.152 45.024 L 318.152 45.024 L 318.152 45.024 Q 320.36 46.976 321.416 49.696 L 321.416 49.696 L 321.416 49.696 Q 322.472 52.416 322.472 55.648 L 322.472 55.648 L 322.472 55.648 Q 322.472 59.008 321.352 61.808 L 321.352 61.808 L 321.352 61.808 Q 320.232 64.608 317.992 66.624 L 317.992 66.624 L 317.992 66.624 Q 315.752 68.64 312.392 69.76 L 312.392 69.76 L 312.392 69.76 Q 309.032 70.88 304.52 70.88 L 304.52 70.88 L 304.52 70.88 Z  M 298.056 47.552 L 298.056 64.16 L 304.52 64.16 L 304.52 64.16 Q 306.888 64.16 308.648 63.568 L 308.648 63.568 L 308.648 63.568 Q 310.408 62.976 311.56 61.872 L 311.56 61.872 L 311.56 61.872 Q 312.712 60.768 313.288 59.184 L 313.288 59.184 L 313.288 59.184 Q 313.864 57.6 313.864 55.648 L 313.864 55.648 L 313.864 55.648 Q 313.864 53.792 313.288 52.288 L 313.288 52.288 L 313.288 52.288 Q 312.712 50.784 311.56 49.728 L 311.56 49.728 L 311.56 49.728 Q 310.408 48.672 308.648 48.112 L 308.648 48.112 L 308.648 48.112 Q 306.888 47.552 304.52 47.552 L 304.52 47.552 L 298.056 47.552 L 298.056 47.552 Z  M 347.784 80.224 L 347.784 80.224 L 347.784 80.224 Q 350.28 80.224 352.248 79.392 L 352.248 79.392 L 352.248 79.392 Q 354.216 78.56 355.576 77.056 L 355.576 77.056 L 355.576 77.056 Q 356.936 75.552 357.656 73.408 L 357.656 73.408 L 357.656 73.408 Q 358.376 71.264 358.376 68.608 L 358.376 68.608 L 358.376 40.896 L 366.984 40.896 L 366.984 68.608 L 366.984 68.608 Q 366.984 72.736 365.656 76.24 L 365.656 76.24 L 365.656 76.24 Q 364.328 79.744 361.832 82.288 L 361.832 82.288 L 361.832 82.288 Q 359.336 84.832 355.784 86.256 L 355.784 86.256 L 355.784 86.256 Q 352.232 87.68 347.784 87.68 L 347.784 87.68 L 347.784 87.68 Q 343.336 87.68 339.784 86.256 L 339.784 86.256 L 339.784 86.256 Q 336.232 84.832 333.752 82.288 L 333.752 82.288 L 333.752 82.288 Q 331.272 79.744 329.944 76.24 L 329.944 76.24 L 329.944 76.24 Q 328.616 72.736 328.616 68.608 L 328.616 68.608 L 328.616 40.896 L 337.224 40.896 L 337.224 68.576 L 337.224 68.576 Q 337.224 71.232 337.944 73.376 L 337.944 73.376 L 337.944 73.376 Q 338.664 75.52 340.008 77.04 L 340.008 77.04 L 340.008 77.04 Q 341.352 78.56 343.32 79.392 L 343.32 79.392 L 343.32 79.392 Q 345.288 80.224 347.784 80.224 Z  M 398.984 67.968 L 398.984 67.968 L 398.984 67.968 Q 399.528 68.992 399.992 70.096 L 399.992 70.096 L 399.992 70.096 Q 400.456 71.2 400.904 72.32 L 400.904 72.32 L 400.904 72.32 Q 401.352 71.168 401.832 70.048 L 401.832 70.048 L 401.832 70.048 Q 402.312 68.928 402.856 67.904 L 402.856 67.904 L 416.552 42.272 L 416.552 42.272 Q 416.808 41.792 417.08 41.504 L 417.08 41.504 L 417.08 41.504 Q 417.352 41.216 417.688 41.088 L 417.688 41.088 L 417.688 41.088 Q 418.024 40.96 418.44 40.928 L 418.44 40.928 L 418.44 40.928 Q 418.856 40.896 419.432 40.896 L 419.432 40.896 L 425.928 40.896 L 425.928 87.168 L 418.344 87.168 L 418.344 57.28 L 418.344 57.28 Q 418.344 56.448 418.392 55.456 L 418.392 55.456 L 418.392 55.456 Q 418.44 54.464 418.536 53.44 L 418.536 53.44 L 404.552 79.68 L 404.552 79.68 Q 404.072 80.576 403.304 81.072 L 403.304 81.072 L 403.304 81.072 Q 402.536 81.568 401.512 81.568 L 401.512 81.568 L 400.328 81.568 L 400.328 81.568 Q 399.304 81.568 398.536 81.072 L 398.536 81.072 L 398.536 81.072 Q 397.768 80.576 397.288 79.68 L 397.288 79.68 L 383.112 53.344 L 383.112 53.344 Q 383.24 54.4 383.288 55.408 L 383.288 55.408 L 383.288 55.408 Q 383.336 56.416 383.336 57.28 L 383.336 57.28 L 383.336 87.168 L 375.752 87.168 L 375.752 40.896 L 382.248 40.896 L 382.248 40.896 Q 382.824 40.896 383.24 40.928 L 383.24 40.928 L 383.24 40.928 Q 383.656 40.96 383.992 41.088 L 383.992 41.088 L 383.992 41.088 Q 384.328 41.216 384.616 41.504 L 384.616 41.504 L 384.616 41.504 Q 384.904 41.792 385.16 42.272 L 385.16 42.272 L 398.984 67.968 L 398.984 67.968 Z  M 450.632 70.88 L 444.168 70.88 L 444.168 87.168 L 435.56 87.168 L 435.56 40.896 L 450.632 40.896 L 450.632 40.896 Q 455.272 40.896 458.664 41.984 L 458.664 41.984 L 458.664 41.984 Q 462.056 43.072 464.264 45.024 L 464.264 45.024 L 464.264 45.024 Q 466.472 46.976 467.528 49.696 L 467.528 49.696 L 467.528 49.696 Q 468.584 52.416 468.584 55.648 L 468.584 55.648 L 468.584 55.648 Q 468.584 59.008 467.464 61.808 L 467.464 61.808 L 467.464 61.808 Q 466.344 64.608 464.104 66.624 L 464.104 66.624 L 464.104 66.624 Q 461.864 68.64 458.504 69.76 L 458.504 69.76 L 458.504 69.76 Q 455.144 70.88 450.632 70.88 L 450.632 70.88 L 450.632 70.88 Z  M 444.168 47.552 L 444.168 64.16 L 450.632 64.16 L 450.632 64.16 Q 453 64.16 454.76 63.568 L 454.76 63.568 L 454.76 63.568 Q 456.52 62.976 457.672 61.872 L 457.672 61.872 L 457.672 61.872 Q 458.824 60.768 459.4 59.184 L 459.4 59.184 L 459.4 59.184 Q 459.976 57.6 459.976 55.648 L 459.976 55.648 L 459.976 55.648 Q 459.976 53.792 459.4 52.288 L 459.4 52.288 L 459.4 52.288 Q 458.824 50.784 457.672 49.728 L 457.672 49.728 L 457.672 49.728 Q 456.52 48.672 454.76 48.112 L 454.76 48.112 L 454.76 48.112 Q 453 47.552 450.632 47.552 L 450.632 47.552 L 444.168 47.552 L 444.168 47.552 Z " fill="rgb(20,83,45)"/><path d=" M 156.712 40.896 L 156.712 87.168 L 148.04 87.168 L 148.04 66.944 L 126.344 66.944 L 126.344 87.168 L 117.672 87.168 L 117.672 40.896 L 126.344 40.896 L 126.344 60.8 L 148.04 60.8 L 148.04 40.896 L 156.712 40.896 L 156.712 40.896 Z  M 166.056 40.896 L 195.24 40.896 L 195.24 47.744 L 174.728 47.744 L 174.728 60.576 L 190.888 60.576 L 190.888 67.2 L 174.728 67.2 L 174.728 80.288 L 195.24 80.288 L 195.24 87.168 L 166.056 87.168 L 166.056 40.896 L 166.056 40.896 Z  M 225.192 40.896 L 243.368 87.168 L 236.712 87.168 L 236.712 87.168 Q 235.592 87.168 234.872 86.608 L 234.872 86.608 L 234.872 86.608 Q 234.152 86.048 233.832 85.216 L 233.832 85.216 L 230.376 75.776 L 211.208 75.776 L 207.752 85.216 L 207.752 85.216 Q 207.496 85.952 206.744 86.56 L 206.744 86.56 L 206.744 86.56 Q 205.992 87.168 204.904 87.168 L 204.904 87.168 L 198.216 87.168 L 216.392 40.896 L 225.192 40.896 L 225.192 40.896 Z  M 219.048 54.368 L 213.416 69.696 L 228.168 69.696 L 222.536 54.304 L 222.536 54.304 Q 222.152 53.28 221.688 51.888 L 221.688 51.888 L 221.688 51.888 Q 221.224 50.496 220.776 48.864 L 220.776 48.864 L 220.776 48.864 Q 220.328 50.496 219.896 51.904 L 219.896 51.904 L 219.896 51.904 Q 219.464 53.312 219.048 54.368 L 219.048 54.368 L 219.048 54.368 Z  M 239.528 40.896 L 276.04 40.896 L 276.04 47.968 L 262.12 47.968 L 262.12 87.168 L 253.512 87.168 L 253.512 47.968 L 239.528 47.968 L 239.528 40.896 L 239.528 40.896 Z " fill="rgb(147,0,0)"/></g></svg>